<?xml version="1.0" encoding="UTF-8"?>
<!DOCTYPE svg PUBLIC "-//W3C//DTD SVG 1.1//EN" "http://www.w3.org/Graphics/SVG/1.1/DTD/svg11.dtd">
<!-- Creator: CorelDRAW -->
<svg xmlns="http://www.w3.org/2000/svg" xml:space="preserve" width="100%" height="100%" version="1.1" style="shape-rendering:geometricPrecision; text-rendering:geometricPrecision; image-rendering:optimizeQuality; fill-rule:evenodd; clip-rule:evenodd"
viewBox="0 0 10476.32 10476.32"
 xmlns:xlink="http://www.w3.org/1999/xlink"
 xmlns:xodm="http://www.corel.com/coreldraw/odm/2003">
 <defs>
  <style type="text/css">
   <![CDATA[
    .fil1 {fill:none}
    .fil0 {fill:#373435;fill-rule:nonzero}
   ]]>
  </style>
 </defs>
 <g id="Plan_x0020_1">
  <metadata id="CorelCorpID_0Corel-Layer"/>
  <g id="_2500082662704">
   <g>
    <g>
     <path class="fil0" d="M5928.09 6225.67c528.53,251.16 1111.87,489.02 1656.57,704.32l-174.78 378.78c-534.83,-284.72 -1312.06,-665.05 -1804.85,-954.99 -496.06,-291.86 -737.56,-640.63 -1049.01,-1127.83 -369.15,-577.45 -682.65,-1210.12 -989.48,-1823.24l182.66 -91.54c379.19,757.72 1100.93,2284.1 1825.89,2727.99l353 186.51z"/>
    </g>
    <g>
     <path class="fil0" d="M4018.7 4942.4c180.6,-35.94 339.72,-80 514.87,-137.82l53.4 413.82c-910.41,-56.62 -575.78,98.82 -1587.69,-250.01l-53.61 -18.5 66.8 -193.08c305.5,105.71 656.27,249.82 983.74,189.81l22.49 -4.22z"/>
    </g>
    <g>
     <path class="fil0" d="M4738.83 4541.73c-58.86,155.13 -119.64,225.13 -211.07,355.41l-270.74 -317.04c249.98,-120.07 302.85,-216.71 377.6,-529.36l65.72 -369.9 202.26 28.6c-31.72,225.01 -92.53,634.04 -163.77,832.29z"/>
    </g>
    <g>
     <path class="fil0" d="M5159.59 6190.6c60.49,-51.99 82.39,-112.37 110.35,-187.28l315.78 272.82c-269.87,151.98 -215.11,163.72 -586.82,226.19l-387.68 58.91 -27.38 -202.48c168.42,-22.97 439.9,-61.67 575.75,-168.16z"/>
    </g>
   </g>
   <rect class="fil1" width="10476.32" height="10476.32"/>
  </g>
 </g>
</svg>
