<?xml version="1.0" encoding="UTF-8"?>
<!DOCTYPE svg PUBLIC "-//W3C//DTD SVG 1.1//EN" "http://www.w3.org/Graphics/SVG/1.1/DTD/svg11.dtd">
<!-- Creator: CorelDRAW -->
<svg xmlns="http://www.w3.org/2000/svg" xml:space="preserve" width="100%" height="100%" version="1.1" style="shape-rendering:geometricPrecision; text-rendering:geometricPrecision; image-rendering:optimizeQuality; fill-rule:evenodd; clip-rule:evenodd"
viewBox="0 0 10476.32 10476.32"
 xmlns:xlink="http://www.w3.org/1999/xlink"
 xmlns:xodm="http://www.corel.com/coreldraw/odm/2003">
 <defs>
  <style type="text/css">
   <![CDATA[
    .fil1 {fill:none}
    .fil0 {fill:#373435;fill-rule:nonzero}
   ]]>
  </style>
 </defs>
 <g id="Plan_x0020_1">
  <metadata id="CorelCorpID_0Corel-Layer"/>
  <g id="_2500082632416">
   <g>
    <g>
     <path class="fil0" d="M4671.56 6466.35c-520.54,284.13 -1075.98,560.73 -1605.11,842.42l-174.78 -378.78c502.71,-198.71 1846.98,-714.31 2230.89,-1052.19 587.3,-516.88 1249.58,-1857.28 1604.57,-2566.63l182.66 91.54c-392.47,784.25 -1129.95,2336.76 -1847.66,2830.66 -123.5,84.99 -259.07,160.94 -390.57,232.98z"/>
    </g>
    <g>
     <path class="fil0" d="M6430.49 5209.76c-195.17,-2.45 -343.29,-3.66 -541.13,8.64l53.4 -413.82c260.37,85.96 579.39,192.43 855.79,144.13 229.46,-40.1 445.87,-115.96 665.31,-191.9l66.8 193.08c-346.06,119.75 -704.32,265.85 -1075.68,260.27l-24.49 -0.4z"/>
    </g>
    <g>
     <path class="fil0" d="M5985.88 4417.27c66.42,88.31 137.96,116.98 233.43,162.83l-270.74 317.04c-252.54,-359.87 -252.29,-432.56 -330.37,-895.6l-44.47 -292.1 202.26 -28.6c31.06,220.35 82.27,556.96 209.89,736.43z"/>
    </g>
    <g>
     <path class="fil0" d="M5193.66 6439.54c-148.18,-50.17 -188.16,-98.7 -303.05,-163.4l315.78 -272.82c81.57,218.55 184.53,261.8 453.03,317.66l233.07 37.78 -27.38 202.48c-169.48,-22.82 -520.56,-72.15 -671.45,-121.7z"/>
    </g>
   </g>
   <rect class="fil1" width="10476.32" height="10476.32"/>
  </g>
 </g>
</svg>
