<?xml version="1.0" encoding="UTF-8"?>
<!DOCTYPE svg PUBLIC "-//W3C//DTD SVG 1.1//EN" "http://www.w3.org/Graphics/SVG/1.1/DTD/svg11.dtd">
<!-- Creator: CorelDRAW -->
<svg xmlns="http://www.w3.org/2000/svg" xml:space="preserve" width="100%" height="100%" version="1.1" style="shape-rendering:geometricPrecision; text-rendering:geometricPrecision; image-rendering:optimizeQuality; fill-rule:evenodd; clip-rule:evenodd"
viewBox="0 0 10476.32 10476.32"
 xmlns:xlink="http://www.w3.org/1999/xlink"
 xmlns:xodm="http://www.corel.com/coreldraw/odm/2003">
 <defs>
  <style type="text/css">
   <![CDATA[
    .str0 {stroke:#1A1A1A;stroke-width:250;stroke-miterlimit:22.9256}
    .fil2 {fill:none}
    .fil0 {fill:#1A1A1A}
    .fil1 {fill:#DA0E17}
   ]]>
  </style>
 </defs>
 <g id="Plan_x0020_1">
  <metadata id="CorelCorpID_0Corel-Layer"/>
  <g id="_2499903552544">
   <g>
    <path class="fil0 str0" d="M3913.78 6745.88l2738.37 0c161.84,0 351.37,-142.84 294.26,-294.25 -273.72,-725.55 99.76,-1761.57 197.84,-2642.35 17.91,-160.84 -137.74,-253.2 -294.25,-294.25 -1023.15,-268.37 -2159.62,-322.05 -3230.47,0 -154.95,46.59 -312.16,133.44 -294.25,294.25 98.07,880.78 502.91,1708.99 294.25,2642.35 -35.3,157.93 132.41,294.25 294.25,294.25z"/>
    <path class="fil1 str0" d="M3875.81 6745.88l2738.37 0c161.84,0 321.06,-132.83 332.23,-294.25l44.63 -645.22c11.17,-161.43 -112.13,-248.76 -272.93,-266.21 -1047.65,-113.74 -1679.62,-149.46 -2832.77,-17.07 -160.7,18.45 -329.22,121.6 -324.12,283.28l20.34 645.22c5.1,161.72 132.41,294.25 294.25,294.25z"/>
    <path class="fil0 str0" d="M5277.57 6480.62c1046.36,0 2229.1,-163.01 2702.13,-54.82 219.99,50.31 137.02,376.9 73.67,406.09 -762.28,351.27 -2462.08,351.27 -2775.8,351.27 -1533.02,0 -2428.02,-221.03 -2775.79,-351.27 -71.53,-26.79 -269.9,-344.94 -41.6,-395.96 476.7,-106.52 1780.84,44.69 2817.39,44.69z"/>
   </g>
   <rect class="fil2" width="10476.32" height="10476.32"/>
  </g>
 </g>
</svg>
