<?xml version="1.0" encoding="UTF-8"?>
<!DOCTYPE svg PUBLIC "-//W3C//DTD SVG 1.1//EN" "http://www.w3.org/Graphics/SVG/1.1/DTD/svg11.dtd">
<!-- Creator: CorelDRAW -->
<svg xmlns="http://www.w3.org/2000/svg" xml:space="preserve" width="100%" height="100%" version="1.1" style="shape-rendering:geometricPrecision; text-rendering:geometricPrecision; image-rendering:optimizeQuality; fill-rule:evenodd; clip-rule:evenodd"
viewBox="0 0 10476.32 10476.32"
 xmlns:xlink="http://www.w3.org/1999/xlink"
 xmlns:xodm="http://www.corel.com/coreldraw/odm/2003">
 <defs>
  <style type="text/css">
   <![CDATA[
    .str0 {stroke:#1A1A1A;stroke-width:250;stroke-miterlimit:22.9256}
    .fil2 {fill:none}
    .fil0 {fill:#005430}
    .fil1 {fill:#1A1A1A}
   ]]>
  </style>
 </defs>
 <g id="Plan_x0020_1">
  <metadata id="CorelCorpID_0Corel-Layer"/>
  <g id="_2499905321856">
   <g>
    <path class="fil0 str0" d="M3220.9 2382.22c-101.35,-36.97 -201.51,-34.58 -287.36,26.23 -85.85,60.81 -157.39,180.04 -188.39,304.05 -31,124 -21.46,252.78 -47.39,368.49 -25.93,115.71 -87.34,218.35 -121.01,333.18 -33.68,114.83 -39.62,241.83 -13.39,330.07 26.23,88.23 84.64,137.7 269.75,217.23 185.1,79.52 496.89,189.12 1009.31,273.73 512.41,84.6 1225.45,144.22 1864.56,108.45 639.1,-35.77 1204.28,-166.93 1560.79,-274.24 356.52,-107.32 504.37,-190.78 583.06,-261.13 78.7,-70.35 88.24,-127.59 71.54,-196.74 -16.69,-69.16 -59.61,-150.24 -85.85,-262.32 -26.23,-112.08 -35.76,-255.17 -46.49,-387.52 -10.73,-132.35 -22.66,-253.97 -62.01,-348.16 -39.34,-94.2 -106.12,-160.98 -175.28,-203.9 -69.15,-42.93 -140.69,-62 -236.08,-28.61 -95.39,33.38 -214.62,119.23 -454.29,211.04 -239.66,91.81 -599.76,189.59 -996.81,244.44 -397.06,54.84 -831.08,66.77 -1226.94,15.5 -395.87,-51.28 -753.57,-165.74 -983.69,-261.13 -230.13,-95.39 -332.68,-171.7 -434.03,-208.66z"/>
    <path class="fil1" d="M3751.93 2703.15c-30.01,64.17 -78.95,195.16 -107.78,320.69 -28.83,125.52 -37.54,245.58 -71.83,381.12 -34.29,135.53 -94.14,286.55 -132.58,411.24 -38.43,124.69 -55.43,223.05 -65.02,271.96 -9.59,48.91 -11.77,48.36 133.3,73.8 145.07,25.45 437.39,76.9 595.43,103.95 158.05,27.06 181.82,29.73 218.65,-214.64 36.84,-244.36 86.72,-735.75 106.58,-986.53 19.87,-250.78 9.71,-260.93 -39.71,-271.8 -49.41,-10.87 -138.08,-22.45 -242.11,-47.34 -104.02,-24.9 -223.39,-63.11 -288.62,-83.54 -65.23,-20.43 -76.3,-23.08 -106.31,41.09z"/>
    <path class="fil1" d="M6648.73 2710.74c28.95,64.65 75.72,196.43 102.48,322.42 26.76,125.98 33.49,246.16 65.55,382.25 32.05,136.07 89.41,288.06 125.79,413.37 36.37,125.3 51.75,223.93 60.54,272.99 8.78,49.06 10.97,48.55 -134.5,71.59 -145.47,23.06 -438.6,69.69 -597.06,94.14 -158.48,24.45 -182.29,26.73 -215.09,-218.21 -32.81,-244.93 -74.6,-737.08 -90.32,-988.15 -15.74,-251.08 -5.42,-261.06 44.17,-271.11 49.59,-10.06 138.43,-20.18 242.86,-43.35 104.42,-23.18 224.4,-59.42 289.96,-78.78 65.55,-19.35 76.67,-21.82 105.62,42.84z"/>
    <path class="fil0 str0" d="M5467.19 3505.52c87.41,336.54 198.58,867.15 380.82,1435.82 182.25,568.68 435.56,1175.4 584.32,1541.4 148.77,366.01 192.98,491.28 159.82,558.83 -33.16,67.56 -143.69,77.38 -314.67,115.07 -170.97,37.69 -402.39,103.23 -558.37,142.53 -155.98,39.31 -236.53,52.36 -376.08,96.21 -139.55,43.85 -338.11,118.5 -437.39,-94.3 -99.27,-212.8 -99.27,-713.03 -99.27,-1295.83 0,-582.8 0,-1248.15 21.22,-1770.77 21.22,-522.61 63.67,-902.47 138.02,-1103.75 74.36,-201.29 180.64,-223.99 265.59,-164.1 84.95,59.88 148.59,202.34 235.99,538.89z"/>
    <path class="fil1" d="M6373.8 6607.48c-64.65,28.95 -196.43,75.72 -322.42,102.48 -125.98,26.76 -246.16,33.49 -382.25,65.55 -136.07,32.05 -288.06,89.41 -413.37,125.79 -125.3,36.37 -223.93,51.75 -272.99,60.54 -49.06,8.78 -48.55,10.97 -71.59,-134.5 -23.06,-145.47 -69.69,-438.6 -94.14,-597.06 -24.45,-158.48 -26.73,-182.29 218.21,-215.09 244.93,-32.81 737.08,-74.6 988.15,-90.32 251.08,-15.74 261.06,-5.42 271.11,44.17 10.06,49.59 20.18,138.43 43.35,242.86 23.18,104.42 59.42,224.4 78.78,289.96 19.35,65.55 21.82,76.67 -42.84,105.62z"/>
    <path class="fil1" d="M5814.62 5108.36c-44.42,18.87 -134.06,46.64 -218.41,57.45 -84.34,10.81 -163.4,4.66 -254.75,19.09 -91.35,14.44 -194.97,49.44 -279.59,68.75 -84.63,19.3 -150.25,22.88 -182.97,25.66 -32.73,2.77 -32.56,4.74 -36.74,-125.01 -4.19,-129.75 -12.73,-391.21 -16.85,-532.49 -4.13,-141.28 -3.83,-162.36 143.43,-178.42 147.26,-16.06 441.49,-27.09 591.48,-27.57 149.99,-0.49 155.75,9.56 173.89,65.89 18.15,56.33 48.69,158.95 71.32,264.63 22.63,105.67 37.34,214.42 45.09,273.79 7.75,59.37 8.53,69.35 -35.9,88.23z"/>
    <path class="fil0 str0" d="M4771.59 2731.43c-67.94,13.34 -170.65,26.79 -261.01,144.55 -90.35,117.76 -168.34,339.83 -203.81,749.03 -35.46,409.2 -28.41,1005.54 -89.59,1716.31 -61.18,710.78 -190.6,1536 -295.02,2015.39 -104.42,479.39 -183.83,612.95 168.12,690.56 351.95,77.61 1135.27,99.27 1467.37,27.07 332.1,-72.19 212.97,-238.24 119.12,-606.44 -93.85,-368.19 -162.44,-938.54 -183.38,-1448.88 -20.93,-510.34 5.77,-960.69 25.17,-1361.29 19.41,-400.6 31.52,-751.45 104.35,-1049.1 72.84,-297.65 206.41,-542.08 252.79,-673.82 46.39,-131.74 5.59,-150.77 -61.16,-179.08 -66.74,-28.32 -159.42,-65.92 -315.2,-78.15 -155.77,-12.23 -374.64,0.89 -500.65,14.08 -126.01,13.18 -159.16,26.42 -227.1,39.77z"/>
    <path class="fil1" d="M3979.97 7336.81c77.51,15.41 232.74,34.85 467.01,48.71 234.26,13.85 547.58,22.15 760.12,23.95 212.54,1.8 324.32,-2.89 380.17,-4.11 55.86,-1.22 55.78,1.03 36.54,-145.5 -19.23,-146.53 -57.64,-441.81 -78.27,-601.35 -20.61,-159.55 -23.46,-183.34 -271.03,-196.86 -247.56,-13.52 -739.84,-16.78 -990.31,-12.34 -250.47,4.44 -259.11,16.55 -275.93,96.97 -16.83,80.43 -41.82,229.17 -60.74,365.94 -18.92,136.77 -31.79,261.58 -38.32,329.69 -6.54,68.11 -6.75,79.49 70.76,94.9z"/>
    <path class="fil1" d="M4234.61 5607.98c92.73,7.21 276.82,11.71 472.43,9.8 195.61,-1.92 402.73,-10.22 534.44,-9.54 131.7,0.68 187.99,10.34 216.15,8.73 28.16,-1.62 28.19,-14.54 29.85,-156.05 1.67,-141.51 4.96,-411.61 4.08,-556.97 -0.88,-145.36 -5.94,-165.96 -212.52,-171.54 -206.57,-5.58 -614.68,3.86 -820.75,14.08 -206.08,10.23 -210.14,21.22 -214.99,100.16 -4.87,78.94 -10.53,225.81 -28.02,359.5 -17.5,133.69 -46.84,254.22 -60.82,319.45 -13.98,65.23 -12.59,75.16 80.15,82.38z"/>
    <path class="fil1" d="M4431.44 4003.88c184.96,2.84 553.49,-1.43 765.9,1.28 212.41,2.7 268.69,12.36 296.85,10.75 28.16,-1.62 28.19,-14.54 35.57,-94.98 7.37,-80.44 22.09,-228.4 63.95,-356.19 41.86,-127.79 110.85,-235.4 142.82,-299.5 31.96,-64.12 26.9,-84.72 -84.23,-116.74 -111.13,-32.03 -328.33,-75.47 -542.25,-84.07 -213.92,-8.61 -424.57,17.62 -544.39,43.97 -119.82,26.35 -148.83,52.82 -187.35,198.31 -38.52,145.48 -86.56,409.97 -109.89,547.18 -23.32,137.22 -21.94,147.16 163.02,149.99z"/>
   </g>
   <rect class="fil2" width="10476.32" height="10476.32"/>
  </g>
 </g>
</svg>
